<?xml version="1.0" encoding="UTF-8" standalone="no"?>
<!DOCTYPE svg PUBLIC "-//W3C//DTD SVG 1.1//EN" "http://www.w3.org/Graphics/SVG/1.1/DTD/svg11.dtd">
<svg xmlns="http://www.w3.org/2000/svg" version="1.1" viewBox="0.00 0.00 1024.00 1024.00">
<path fill="#ece7d4" fill-rule="evenodd" d="
  M 609.94 410.54
  Q 556.99 326.77 533.78 289.48
  Q 527.67 279.65 524.56 277.46
  C 516.54 271.80 504.95 272.29 497.68 279.21
  C 494.89 281.86 493.19 285.15 491.04 288.51
  Q 484.16 299.27 427.72 389.69
  Q 366.56 487.69 312.88 572.87
  Q 288.81 611.08 224.70 713.45
  C 218.18 723.85 218.86 735.24 227.38 743.88
  Q 234.38 750.98 245.72 750.88
  Q 260.46 750.74 282.24 750.79
  Q 289.68 750.80 297.20 748.19
  Q 317.86 741.01 325.16 720.45
  Q 334.18 695.07 346.19 657.99
  C 349.54 647.63 357.00 637.46 366.56 632.16
  Q 372.13 629.07 379.76 626.96
  Q 383.72 625.86 393.80 626.11
  Q 400.59 626.28 416.12 626.10
  Q 424.60 626.00 428.75 627.38
  C 438.91 630.77 447.84 639.15 450.27 649.74
  C 452.73 660.48 449.58 669.50 445.71 680.49
  Q 439.90 696.97 433.08 717.34
  C 430.33 725.58 430.15 732.64 434.16 739.97
  Q 440.09 750.82 455.00 750.82
  Q 682.85 750.82 777.75 750.83
  C 781.82 750.83 786.18 750.59 789.78 748.83
  C 801.73 743.00 806.10 731.27 802.39 718.74
  Q 801.46 715.59 797.10 709.18
  Q 790.82 699.93 785.74 691.45
  C 778.15 678.77 771.13 668.30 763.34 655.59
  Q 757.98 646.85 752.03 637.52
  Q 730.93 604.43 718.47 583.79
  Q 715.26 578.47 711.29 573.83
  A 0.96 0.96 0.0 0 0 709.70 574.03
  Q 698.02 597.98 689.12 617.80
  Q 685.40 626.10 680.92 635.34
  C 677.24 642.93 674.05 651.23 670.28 658.88
  Q 663.78 672.04 655.81 690.05
  Q 649.05 705.35 635.29 712.34
  Q 623.49 718.33 610.62 716.95
  C 593.29 715.09 580.46 704.63 573.41 688.80
  Q 567.27 675.04 558.13 655.67
  Q 540.61 618.58 526.87 587.70
  A 0.48 0.48 0.0 0 0 525.98 587.73
  Q 502.10 656.64 483.67 709.42
  C 478.78 723.43 457.98 716.63 462.64 702.30
  Q 466.39 690.78 486.96 631.91
  Q 499.42 596.26 511.96 560.30
  Q 515.01 551.52 515.87 550.39
  Q 518.86 546.44 525.25 545.78
  Q 528.05 545.49 532.11 548.19
  Q 534.29 549.65 536.21 554.22
  Q 538.25 559.06 546.92 577.90
  Q 561.99 610.61 587.93 666.39
  Q 592.59 676.39 596.20 683.53
  C 600.56 692.14 608.63 695.71 618.05 694.62
  Q 629.38 693.30 635.13 680.83
  Q 661.75 623.05 687.96 566.48
  C 693.52 554.49 705.07 548.63 718.03 552.49
  Q 726.91 555.14 732.12 563.51
  Q 755.23 600.65 814.57 694.83
  Q 822.58 707.55 824.12 712.94
  C 830.53 735.48 821.04 758.07 800.17 768.48
  Q 790.93 773.09 780.00 773.08
  Q 584.76 773.03 462.01 773.13
  Q 447.55 773.14 442.67 771.92
  C 420.05 766.28 407.24 746.18 408.80 723.46
  Q 409.24 717.03 414.08 703.48
  Q 417.90 692.79 428.24 661.75
  C 431.44 652.17 424.39 648.39 416.20 648.35
  Q 393.41 648.23 387.77 648.47
  C 375.34 648.99 370.31 657.54 366.77 668.02
  Q 356.81 697.52 347.84 724.36
  Q 343.46 737.46 334.30 748.78
  C 322.72 763.07 303.74 773.03 285.47 773.07
  Q 251.48 773.14 241.51 773.03
  Q 237.80 772.99 232.81 771.65
  C 202.01 763.39 188.19 729.52 205.24 702.26
  C 257.47 618.78 304.48 544.11 346.64 476.62
  Q 420.70 358.06 447.55 315.50
  Q 451.94 308.54 453.12 306.63
  Q 455.12 303.37 474.84 271.58
  Q 482.08 259.90 495.99 254.22
  C 513.44 247.11 531.54 251.70 544.56 265.10
  Q 547.16 267.77 551.84 275.56
  Q 557.62 285.17 580.79 322.07
  C 611.22 370.51 638.51 414.51 673.08 469.14
  Q 677.30 475.80 679.65 481.06
  C 685.34 493.78 685.77 506.78 682.60 520.77
  Q 681.24 526.76 676.36 537.26
  C 660.69 570.92 644.61 605.62 625.55 647.74
  A 4.44 4.20 78.4 0 1 625.01 648.61
  C 619.15 655.74 607.76 654.34 603.81 645.95
  C 596.98 631.42 587.77 611.90 580.13 594.72
  C 576.02 585.48 572.46 579.00 568.76 570.69
  Q 564.42 560.95 556.02 542.79
  Q 549.68 529.09 547.76 526.70
  C 538.44 515.15 522.38 513.37 509.51 520.26
  C 500.96 524.84 496.24 534.44 493.25 543.78
  Q 490.13 553.56 482.75 575.25
  Q 477.42 590.92 461.51 598.56
  Q 452.33 602.97 444.27 602.63
  Q 441.80 602.53 419.11 602.71
  Q 406.34 602.81 402.00 601.53
  C 385.50 596.64 375.75 582.06 378.54 564.73
  Q 378.97 562.06 381.74 554.34
  Q 383.39 549.77 385.28 544.05
  Q 394.40 516.56 422.54 432.29
  C 425.86 422.37 436.08 416.19 446.55 417.99
  C 453.58 419.20 458.08 423.21 462.87 429.00
  Q 470.52 438.24 473.46 441.55
  C 477.04 445.58 481.74 445.53 485.32 441.31
  C 490.18 435.59 501.83 422.69 521.66 400.41
  Q 527.47 393.89 532.78 389.35
  C 539.19 383.87 548.65 381.64 557.02 383.46
  Q 559.79 384.06 566.63 387.73
  Q 590.38 400.48 609.35 411.15
  A 0.44 0.44 0.0 0 0 609.94 410.54
  Z
  M 443.10 441.94
  A 0.68 0.68 0.0 0 1 444.25 441.71
  C 449.17 447.32 454.61 455.50 460.30 460.03
  Q 470.47 468.14 483.79 466.31
  C 492.11 465.17 498.74 460.55 504.21 454.21
  C 512.36 444.77 518.76 438.11 526.96 428.66
  Q 534.54 419.93 542.51 411.01
  C 545.72 407.43 549.34 403.63 554.58 406.69
  Q 559.58 409.61 580.59 420.84
  C 595.51 428.82 612.29 438.14 628.12 446.88
  Q 635.21 450.80 639.96 458.53
  Q 643.04 463.54 657.77 486.96
  C 664.20 497.20 663.74 511.06 658.65 521.94
  C 650.28 539.82 645.48 550.73 637.72 567.02
  Q 626.29 591.03 615.30 615.64
  A 0.37 0.37 0.0 0 1 614.62 615.65
  Q 593.56 571.42 575.01 529.99
  C 569.82 518.38 563.56 508.25 552.75 501.78
  Q 532.72 489.79 512.11 495.32
  C 490.40 501.15 477.86 516.76 471.50 537.44
  C 468.33 547.75 466.10 553.73 462.63 564.86
  Q 459.31 575.53 448.98 579.57
  Q 445.56 580.91 437.92 580.81
  Q 425.17 580.64 413.57 580.88
  C 408.92 580.98 402.76 579.23 401.42 574.22
  Q 400.40 570.42 401.32 567.32
  Q 404.53 556.50 411.13 537.37
  Q 413.11 531.63 421.14 507.49
  Q 434.99 465.87 443.10 441.94
  Z"
/>
</svg>
